<?xml version="1.0" encoding="utf-8"?>
<!-- Generator: Adobe Illustrator 27.5.0, SVG Export Plug-In . SVG Version: 6.00 Build 0)  -->
<svg version="1.1" xmlns="http://www.w3.org/2000/svg" xmlns:xlink="http://www.w3.org/1999/xlink" x="0px" y="0px"
	 viewBox="0 0 500 500" style="enable-background:new 0 0 500 500;" xml:space="preserve">
<g id="Background_Simple">
	<g>
		<path style="fill:#C6FF00;" d="M347.727,102.01c0,0-57.629-32.239-123.769-7.764S115.682,182.47,80.176,233.238
			C44.67,284.005,50.114,342.712,91.717,376.134c41.604,33.422,79.298,0.994,144.099,10.124
			c64.802,9.13,80.574,21.295,140.296-6.021c59.722-27.316,84.06-111.676,52.699-182.492
			C397.449,126.929,347.727,102.01,347.727,102.01z"/>
		<path style="opacity:0.8;fill:#FFFFFF;" d="M347.727,102.01c0,0-57.629-32.239-123.769-7.764S115.682,182.47,80.176,233.238
			C44.67,284.005,50.114,342.712,91.717,376.134c41.604,33.422,79.298,0.994,144.099,10.124
			c64.802,9.13,80.574,21.295,140.296-6.021c59.722-27.316,84.06-111.676,52.699-182.492
			C397.449,126.929,347.727,102.01,347.727,102.01z"/>
	</g>
</g>
<g id="Clouds">
	<g>
		<path style="fill:#FFFFFF;" d="M400.175,191.709c-4.931-2.689-7.172-0.448-8.965-2.689c-1.793-2.242,4.931-8.069-8.517-13.896
			c0,0-0.896-12.551-19.275-12.999c-18.378-0.448-13.447,12.551-18.378,15.689c-4.931,3.138-6.275-1.793-11.206,1.345
			c-4.931,3.137-2.69,9.413-6.724,10.31c-4.034,0.896-9.413-4.034-14.344-0.897c-4.931,3.138-4.931,5.827-7.172,5.827
			c-2.241,0-6.724-1.793-9.413,0c-2.69,1.793-5.827,4.034-5.827,4.034h113.408C403.761,198.433,405.106,194.399,400.175,191.709z"/>
		<path style="opacity:0.5;fill:#FFFFFF;" d="M400.175,191.709c-4.931-2.689-7.172-0.448-8.965-2.689
			c-1.793-2.242,4.931-8.069-8.517-13.896c0,0-0.896-12.551-19.275-12.999c-18.378-0.448-13.447,12.551-18.378,15.689
			c-4.931,3.138-6.275-1.793-11.206,1.345c-4.931,3.137-2.69,9.413-6.724,10.31c-4.034,0.896-9.413-4.034-14.344-0.897
			c-4.931,3.138-4.931,5.827-7.172,5.827c-2.241,0-6.724-1.793-9.413,0c-2.69,1.793-5.827,4.034-5.827,4.034h113.408
			C403.761,198.433,405.106,194.399,400.175,191.709z"/>
	</g>
	<g>
		<path style="fill:#FFFFFF;" d="M228.474,134.374c-2.923-1.594-4.251-0.266-5.313-1.594c-1.063-1.328,2.922-4.782-5.048-8.236
			c0,0-0.531-7.439-11.424-7.704c-10.892-0.266-7.97,7.439-10.892,9.299c-2.922,1.86-3.719-1.063-6.642,0.797
			c-2.923,1.86-1.594,5.579-3.985,6.111c-2.391,0.531-5.579-2.391-8.502-0.531s-2.922,3.454-4.251,3.454
			c-1.328,0-3.985-1.063-5.579,0c-1.594,1.063-3.454,2.391-3.454,2.391H230.6C230.6,138.359,231.396,135.968,228.474,134.374z"/>
		<path style="opacity:0.5;fill:#FFFFFF;" d="M228.474,134.374c-2.923-1.594-4.251-0.266-5.313-1.594
			c-1.063-1.328,2.922-4.782-5.048-8.236c0,0-0.531-7.439-11.424-7.704c-10.892-0.266-7.97,7.439-10.892,9.299
			c-2.922,1.86-3.719-1.063-6.642,0.797c-2.923,1.86-1.594,5.579-3.985,6.111c-2.391,0.531-5.579-2.391-8.502-0.531
			s-2.922,3.454-4.251,3.454c-1.328,0-3.985-1.063-5.579,0c-1.594,1.063-3.454,2.391-3.454,2.391H230.6
			C230.6,138.359,231.396,135.968,228.474,134.374z"/>
	</g>
	<g>
		<path style="fill:#FFFFFF;" d="M269.437,355.897c-8.402-4.582-12.22-0.764-15.276-4.582c-3.055-3.819,8.402-13.749-14.512-23.678
			c0,0-1.527-21.386-32.843-22.15c-31.315-0.763-22.913,21.387-31.315,26.733c-8.402,5.347-10.693-3.055-19.095,2.292
			c-8.402,5.346-4.583,16.039-11.456,17.567c-6.874,1.527-16.04-6.874-24.441-1.528s-8.402,9.929-12.221,9.929
			c-3.819,0-11.457-3.055-16.039,0c-4.583,3.056-9.929,6.874-9.929,6.874h193.239C275.548,367.354,277.839,360.479,269.437,355.897z
			"/>
		<path style="opacity:0.5;fill:#FFFFFF;" d="M269.437,355.897c-8.402-4.582-12.22-0.764-15.276-4.582
			c-3.055-3.819,8.402-13.749-14.512-23.678c0,0-1.527-21.386-32.843-22.15c-31.315-0.763-22.913,21.387-31.315,26.733
			c-8.402,5.347-10.693-3.055-19.095,2.292c-8.402,5.346-4.583,16.039-11.456,17.567c-6.874,1.527-16.04-6.874-24.441-1.528
			s-8.402,9.929-12.221,9.929c-3.819,0-11.457-3.055-16.039,0c-4.583,3.056-9.929,6.874-9.929,6.874h193.239
			C275.548,367.354,277.839,360.479,269.437,355.897z"/>
	</g>
</g>
<g id="Books">
	<g>
		<g>
			<path style="fill:#FFFFFF;stroke:#263238;stroke-linecap:round;stroke-linejoin:round;stroke-miterlimit:10;" d="M128.271,323.33
				c0,0-4.94-4.333-10.053-5.806c-5.113-1.473-10.98-1.518-16.093-2.905c-5.113-1.387-8.086-2.555-8.086-2.555l-0.26,4.593
				l34.319,9.273l23.486-6.5l2.34-4.766c0,0-2.86,1.473-7.973,2.687c-5.113,1.213-10.833,1.213-14.04,2.427
				C128.704,320.99,128.271,323.33,128.271,323.33z"/>
			<path style="fill:#FFFFFF;stroke:#263238;stroke-linecap:round;stroke-linejoin:round;stroke-miterlimit:10;" d="M93.259,313.104
				c0,0,8.715,2.876,20.556,4.343c8.472,1.05,14.456,5.883,14.456,5.883s4.767-3.38,11.526-3.64
				c6.76-0.26,14.473-2.947,14.473-2.947l-1.473,3.033l-25.219,4.94l-34.839-9.1L93.259,313.104z"/>
			<path style="fill:#FFFFFF;stroke:#263238;stroke-linecap:round;stroke-linejoin:round;stroke-miterlimit:10;" d="M92.305,314.144
				c0,0,7.963,3.223,16.607,3.869c9.273,0.693,19.098,5.317,19.098,5.317s5.807-3.12,12.22-3.12s12.306-1.387,14.126-1.907
				c0,0-0.52,1.387,0.433,2.86l-26.866,5.72l-35.792-10.4L92.305,314.144z"/>
			<g>
				<defs>
					<path id="XMLID_2_" d="M91.872,316.05l34.925,8.753v1.213l2.947,0.087v-1.387l25.826-4.073c0,0,1.127-0.26,0.173,1.04
						c-0.953,1.3-17.593,15.773-17.593,15.773l-18.459,1.907l-27.993-6.153L91.872,316.05z"/>
				</defs>
				<use xlink:href="#XMLID_2_"  style="overflow:visible;fill:#C6FF00;"/>
				<clipPath id="XMLID_00000158712274507988120460000001609447145748560517_">
					<use xlink:href="#XMLID_2_"  style="overflow:visible;"/>
				</clipPath>
				<polygon style="opacity:0.3;clip-path:url(#XMLID_00000158712274507988120460000001609447145748560517_);" points="
					126.798,326.017 126.798,324.803 91.872,316.05 91.699,333.21 119.691,339.363 120.191,339.311 127.581,326.039 				"/>
				
					<use xlink:href="#XMLID_2_"  style="overflow:visible;fill:none;stroke:#263238;stroke-linecap:round;stroke-linejoin:round;stroke-miterlimit:10;"/>
			</g>
			<polygon style="fill:#C6FF00;stroke:#263238;stroke-linecap:round;stroke-linejoin:round;stroke-miterlimit:10;" points="
				126.798,326.017 119.084,339.363 120.558,339.449 129.744,326.103 			"/>
		</g>
		<g>
			<path style="fill:#FFFFFF;stroke:#263238;stroke-linecap:round;stroke-linejoin:round;stroke-miterlimit:10;" d="
				M125.564,407.347c0,0-1.68,3.522-3.926,5.138s-5.1,2.36-7.36,3.918c-2.26,1.557-3.514,2.707-3.514,2.707l-0.9-3.064
				l15.178-10.429l12.549,1.52l1.943,2.928c0,0-1.643-0.645-4.341-0.84c-2.698-0.195-5.488,0.502-7.256,0.074
				C126.169,408.871,125.564,407.347,125.564,407.347z"/>
			<path style="fill:#FFFFFF;stroke:#263238;stroke-linecap:round;stroke-linejoin:round;stroke-miterlimit:10;" d="
				M110.209,418.503c0,0,3.767-2.999,9.295-5.431c3.956-1.74,6.061-5.726,6.061-5.726s2.894,1.698,6.234,1.05
				c3.341-0.648,7.555,0.223,7.555,0.223l-1.229-1.865l-13.132-0.258l-15.461,10.376L110.209,418.503z"/>
			<path style="fill:#FFFFFF;stroke:#263238;stroke-linecap:round;stroke-linejoin:round;stroke-miterlimit:10;" d="
				M109.569,417.919c0,0,3.342-3.142,7.449-4.63c4.406-1.597,8.42-5.91,8.42-5.91s3.357,1.396,6.485,0.615
				c3.128-0.781,6.235-0.564,7.211-0.435c0,0-0.487-0.871-0.27-1.98l-14.066-0.583l-15.707,11.368L109.569,417.919z"/>
			<g>
				<defs>
					<path id="XMLID_9_" d="M109.037,416.686l15.561-10.153l-0.204-0.818l1.423-0.417l0.233,0.935l13.282-0.4
						c0,0,0.593,0.038-0.09-0.722c-0.684-0.76-11.235-8.488-11.235-8.488l-9.324,0.963l-12.617,7.556L109.037,416.686z"/>
				</defs>
				<use xlink:href="#XMLID_9_"  style="overflow:visible;fill:#C6FF00;"/>
				<clipPath id="XMLID_00000023959276062187876630000011463909876141274001_">
					<use xlink:href="#XMLID_9_"  style="overflow:visible;"/>
				</clipPath>
				<polygon style="opacity:0.3;clip-path:url(#XMLID_00000023959276062187876630000011463909876141274001_);" points="
					124.394,405.716 124.598,406.533 109.037,416.686 106.064,405.142 118.681,397.586 118.934,397.56 124.772,405.605 				"/>
				
					<use xlink:href="#XMLID_9_"  style="overflow:visible;fill:none;stroke:#263238;stroke-linecap:round;stroke-linejoin:round;stroke-miterlimit:10;"/>
			</g>
			<polygon style="fill:#C6FF00;stroke:#263238;stroke-linecap:round;stroke-linejoin:round;stroke-miterlimit:10;" points="
				124.394,405.716 118.386,397.66 119.09,397.422 125.816,405.298 			"/>
		</g>
		<g>
			<polygon style="fill:#C6FF00;stroke:#263238;stroke-linecap:round;stroke-linejoin:round;stroke-miterlimit:10;" points="
				358.224,299.715 386.458,328.306 326.161,345.302 322.17,316.631 			"/>
			<g>
				<polygon style="fill:#FFFFFF;stroke:#263238;stroke-linecap:round;stroke-linejoin:round;stroke-miterlimit:10;" points="
					383.207,332.444 320.84,350.77 325.865,317.813 357.344,303.773 				"/>
			</g>
			<g>
				<defs>
					<polygon id="XMLID_5_" points="358.822,305.547 382.025,335.548 323.5,352.544 330.299,316.483 					"/>
				</defs>
				<use xlink:href="#XMLID_5_"  style="overflow:visible;fill:#FFFFFF;"/>
				<clipPath id="XMLID_00000039114080414344038500000008724263041214794680_">
					<use xlink:href="#XMLID_5_"  style="overflow:visible;"/>
				</clipPath>
				<polygon style="opacity:0.17;clip-path:url(#XMLID_00000039114080414344038500000008724263041214794680_);" points="
					358.822,305.547 382.025,335.548 323.5,352.544 330.299,316.483 				"/>
				
					<use xlink:href="#XMLID_5_"  style="overflow:visible;fill:none;stroke:#263238;stroke-linecap:round;stroke-linejoin:round;stroke-miterlimit:10;"/>
			</g>
			<polygon style="fill:#FFFFFF;stroke:#263238;stroke-linecap:round;stroke-linejoin:round;stroke-miterlimit:10;" points="
				358.822,305.547 348.181,342.494 306.652,355.056 322.614,321.065 			"/>
			<polygon style="fill:#FFFFFF;stroke:#263238;stroke-linecap:round;stroke-linejoin:round;stroke-miterlimit:10;" points="
				345.225,339.538 305.175,352.987 303.992,347.371 341.087,334.07 			"/>
			<polygon style="fill:#FFFFFF;stroke:#263238;stroke-linecap:round;stroke-linejoin:round;stroke-miterlimit:10;" points="
				357.787,300.522 384.389,328.159 383.207,332.444 358.822,305.547 345.225,339.538 341.087,334.07 			"/>
			<g>
				<g>
					<defs>
						<polygon id="XMLID_4_" points="358.224,299.715 341.235,335.105 302.071,348.405 322.17,316.631 						"/>
					</defs>
					<use xlink:href="#XMLID_4_"  style="overflow:visible;fill:#C6FF00;"/>
					<clipPath id="XMLID_00000140699887566914977270000015610989812659823770_">
						<use xlink:href="#XMLID_4_"  style="overflow:visible;"/>
					</clipPath>
					<polygon style="opacity:0.3;clip-path:url(#XMLID_00000140699887566914977270000015610989812659823770_);" points="
						358.224,299.715 341.235,335.105 302.071,348.405 322.17,316.631 					"/>
					
						<use xlink:href="#XMLID_4_"  style="overflow:visible;fill:none;stroke:#263238;stroke-linecap:round;stroke-linejoin:round;stroke-miterlimit:10;"/>
				</g>
				
					<line style="fill:none;stroke:#263238;stroke-linecap:round;stroke-linejoin:round;stroke-miterlimit:10;" x1="320.553" y1="319.886" x2="352.064" y2="305.513"/>
			</g>
		</g>
		<g>
			<g>
				<polygon style="fill:#C6FF00;stroke:#263238;stroke-linecap:round;stroke-linejoin:round;stroke-miterlimit:10;" points="
					227.018,402.484 255.936,366.9 196.278,364.099 191.529,393.991 				"/>
				<g>
					<polygon style="fill:#FFFFFF;stroke:#263238;stroke-linecap:round;stroke-linejoin:round;stroke-miterlimit:10;" points="
						252.806,363.497 191.121,359.845 195.244,391.918 226.25,398.596 					"/>
				</g>
				<g>
					<defs>
						<polygon id="XMLID_6_" points="227.771,396.454 251.711,360.645 193.821,357.422 199.629,392.205 						"/>
					</defs>
					<use xlink:href="#XMLID_6_"  style="overflow:visible;fill:#FFFFFF;"/>
					<clipPath id="XMLID_00000006699956694843150170000015161060930335432333_">
						<use xlink:href="#XMLID_6_"  style="overflow:visible;"/>
					</clipPath>
					<polygon style="opacity:0.17;clip-path:url(#XMLID_00000006699956694843150170000015161060930335432333_);" points="
						227.771,396.454 251.711,360.645 193.821,357.422 199.629,392.205 					"/>
					
						<use xlink:href="#XMLID_6_"  style="overflow:visible;fill:none;stroke:#263238;stroke-linecap:round;stroke-linejoin:round;stroke-miterlimit:10;"/>
				</g>
				<polygon style="fill:#FFFFFF;stroke:#263238;stroke-linecap:round;stroke-linejoin:round;stroke-miterlimit:10;" points="
					227.771,396.454 218.156,361.691 177.091,358.897 192.09,389.41 				"/>
				<polygon style="fill:#FFFFFF;stroke:#263238;stroke-linecap:round;stroke-linejoin:round;stroke-miterlimit:10;" points="
					215.13,365.378 175.562,361.337 174.232,367.288 210.857,371.883 				"/>
				<polygon style="fill:#FFFFFF;stroke:#263238;stroke-linecap:round;stroke-linejoin:round;stroke-miterlimit:10;" points="
					226.605,401.773 253.87,367.542 252.806,363.497 227.771,396.454 215.13,365.378 210.857,371.883 				"/>
				<g>
					<defs>
						<polygon id="XMLID_3_" points="227.018,402.484 211.033,370.804 172.345,366.701 191.529,393.991 						"/>
					</defs>
					<use xlink:href="#XMLID_3_"  style="overflow:visible;fill:#C6FF00;"/>
					<clipPath id="XMLID_00000023969391290998851380000002826033872476592050_">
						<use xlink:href="#XMLID_3_"  style="overflow:visible;"/>
					</clipPath>
					<polygon style="opacity:0.3;clip-path:url(#XMLID_00000023969391290998851380000002826033872476592050_);" points="
						227.018,402.484 211.033,370.804 172.345,366.701 191.529,393.991 					"/>
					
						<use xlink:href="#XMLID_3_"  style="overflow:visible;fill:none;stroke:#263238;stroke-linecap:round;stroke-linejoin:round;stroke-miterlimit:10;"/>
				</g>
			</g>
			
				<line style="fill:none;stroke:#263238;stroke-linecap:round;stroke-linejoin:round;stroke-miterlimit:10;" x1="188.579" y1="390.048" x2="220.09" y2="396.682"/>
		</g>
	</g>
</g>
<g id="Character">
	<g>
		<path style="fill:#263238;stroke:#263238;stroke-linecap:round;stroke-linejoin:round;stroke-miterlimit:10;" d="M250.466,163.225
			c0,0-13.099,6.331-18.338,13.972c-5.239,7.641-3.711,21.831,4.366,26.416c8.078,4.584,36.24,21.395,56.106,18.993
			c19.866-2.402,16.81-22.704,6.768-30.782c-10.042-8.078-23.578-15.282-23.578-15.282s-0.655-4.366-1.528-5.894
			C273.388,169.12,263.346,159.296,250.466,163.225z"/>
		<path style="fill:#FFFFFF;stroke:#263238;stroke-linecap:round;stroke-linejoin:round;stroke-miterlimit:10;" d="M303.651,196.627
			c-29.739-9.098-49.327,7.194-55.476,13.435c12.307,6.388,30.422,14.237,44.424,12.544
			C309.225,220.596,309.792,206.054,303.651,196.627z"/>
		<path style="fill:none;stroke:#263238;stroke-linecap:round;stroke-linejoin:round;stroke-miterlimit:10;" d="M283.431,194.225
			c0,0,17.465,13.972,11.352,27.944"/>
		<g>
			<path style="fill:#FFFFFF;stroke:#263238;stroke-linecap:round;stroke-linejoin:round;stroke-miterlimit:10;" d="
				M226.088,157.126l-6.987,32.65h5.632l13.873-25.722C238.606,164.054,235.891,155.804,226.088,157.126z"/>
			<path style="fill:#C6FF00;stroke:#263238;stroke-linecap:round;stroke-linejoin:round;stroke-miterlimit:10;" d="
				M314.073,141.289c-5.729-7.023-13.307-13.492-27.169-14.601c0,0-11.828-0.37-27.908,6.469
				c-12.566,5.344-26.035,17.009-32.909,23.969c6.187,1.572,9.863,4.107,12.518,6.928c2.746-2.612,5.132-4.881,6.898-6.316
				c5.914-4.805,14.601-8.871,14.601-8.871s-9.426,12.937-11.274,16.264s-0.555,8.686,9.241,10.165
				c9.795,1.479,12.198-0.37,16.079-2.588c3.881-2.218,8.686-4.251,10.535-4.251c1.848,0,5.545,0.37,10.35-2.957
				c4.805-3.327,6.838-12.753,8.502-13.492c1.146-0.509,11.229,12.653,19.089,22.529c0.227-0.116,0.445-0.226,0.687-0.35
				c3.413-1.752,6.088-5.346,7.913-8.506C324.873,156.384,317.775,145.827,314.073,141.289z"/>
			<path style="fill:none;stroke:#263238;stroke-linecap:round;stroke-linejoin:round;stroke-miterlimit:10;" d="M280.943,132.902
				c0,0-3.927,9.424,3.927,12.958"/>
			<g>
				
					<line style="fill:none;stroke:#263238;stroke-linecap:round;stroke-linejoin:round;stroke-miterlimit:10;" x1="260.106" y1="148.866" x2="268.634" y2="146.35"/>
				<path style="fill:none;stroke:#263238;stroke-linecap:round;stroke-linejoin:round;stroke-miterlimit:10;" d="M259.974,165.319
					c0,0,5.361,4.742,17.938-0.619"/>
				<path style="fill:none;stroke:#263238;stroke-linecap:round;stroke-linejoin:round;stroke-miterlimit:10;" d="M309.046,148.412
					c-3.093,0.412-5.507,3.596-5.507,3.596s6.126-1.328,10.868-1.328"/>
				<path style="fill:none;stroke:#263238;stroke-linecap:round;stroke-linejoin:round;stroke-miterlimit:10;" d="M260.387,149.649
					c0,0,5.773,0,11.34-0.206"/>
				<path style="fill:none;stroke:#263238;stroke-linecap:round;stroke-linejoin:round;stroke-miterlimit:10;" d="M263.479,162.844
					c0,0,0.619,3.711,8.66,3.299"/>
			</g>
		</g>
		<path style="fill:#FFFFFF;stroke:#263238;stroke-linecap:round;stroke-linejoin:round;stroke-miterlimit:10;" d="M284.871,129.83
			c0,0-1.294,6.654-0.37,10.165c0.924,3.512,4.251,7.578,6.654,3.327c2.403-4.251,3.696-9.056,3.696-11.274
			S286.535,125.579,284.871,129.83z"/>
		<g>
			<path style="fill:#263238;stroke:#263238;stroke-linecap:round;stroke-linejoin:round;stroke-miterlimit:10;" d="
				M303.538,121.513c0,0,5.175-1.109,9.611-6.838c4.436-5.729-1.294-6.469-3.142-12.013s4.666-3.697-4.76-13.308
				c-9.426-9.611-24.766-6.284-31.974-3.142s-7.023,13.677-12.198,14.416c-5.175,0.739-7.393-4.251-13.677-4.251
				c-6.284,0-12.937,6.653-10.35,12.198c2.587,5.545,7.578,3.142,7.947,2.218c0.37-0.924-2.587,0.185-2.772-2.588
				c-0.185-2.772,6.651-1.294,8.685,2.401c1.652,3.001-1.375,7.265-1.275,10.412c0.201,6.325,7.947,10.363,12.912,11.232
				c6.71,1.174,14.873,0.763,20.959-2.574c7.462-4.092,3.954-12.598,9.499-14.816c5.545-2.218,8.317,1.109,8.317,1.109
				L303.538,121.513z"/>
			<g>
				<path style="fill:none;stroke:#FFFFFF;stroke-linecap:round;stroke-linejoin:round;stroke-miterlimit:10;" d="M247.05,99.816
					c-2.827-1.096-5.111,0.092-5.83,0.812"/>
				<path style="fill:none;stroke:#FFFFFF;stroke-linecap:round;stroke-linejoin:round;stroke-miterlimit:10;" d="M296.374,105.04
					c0,0,0-11.031-7.722-13.237c-7.722-2.206-16.546,7.722-20.959,13.973c-4.412,6.251-11.031,4.78-15.811-1.839
					c-0.501-0.693-1.002-1.29-1.498-1.801"/>
				<path style="fill:none;stroke:#FFFFFF;stroke-linecap:round;stroke-linejoin:round;stroke-miterlimit:10;" d="M252.618,125.631
					c4.045,2.574,6.986,3.309,12.869,1.471c5.883-1.839,5.148-11.399,10.296-16.546c5.148-5.148,14.34-3.309,14.34-3.309
					s-10.296-5.516-18.385,0.368c-8.089,5.883-7.354,15.811-14.708,17.649"/>
				<path style="fill:none;stroke:#FFFFFF;stroke-linecap:round;stroke-linejoin:round;stroke-miterlimit:10;" d="M301.522,106.143
					c0,0,6.986-1.839,6.618-8.089"/>
			</g>
		</g>
		<path style="fill:none;stroke:#FFFFFF;stroke-linecap:round;stroke-linejoin:round;stroke-miterlimit:10;" d="M243.916,176.979
			c0,0,18.993,2.401,28.599,8.951"/>
		<g>
			<path style="fill:#FFFFFF;stroke:#263238;stroke-linecap:round;stroke-linejoin:round;stroke-miterlimit:10;" d="
				M297.512,108.522c0,0-3.512-1.294-6.654,2.033c-3.142,3.327-3.03,5.043-5.618,7.076c-2.587,2.033-4.62,0.924-5.729,0.37
				c-1.109-0.555-2.403-0.185-2.772,2.403c-0.37,2.587,3.142,4.62,3.696,4.62c0.554,0,1.663,0.185,1.663,0.185s0,4.62,3.142,7.393
				c3.142,2.772,9.426,7.208,13.677,6.284c4.251-0.924,5.914-10.719,5.914-15.71c0-4.99-1.663-11.828-2.957-14.785
				C300.581,105.434,297.512,108.522,297.512,108.522z"/>
			<g>
				<path style="fill:#263238;" d="M293.994,119.753c0,1.025-0.369,1.856-0.825,1.856c-0.456,0-0.825-0.831-0.825-1.856
					c0-1.025,0.369-1.856,0.825-1.856C293.625,117.897,293.994,118.728,293.994,119.753z"/>
				<path style="fill:#263238;" d="M300.592,119.134c0,1.025-0.369,1.856-0.825,1.856c-0.456,0-0.825-0.831-0.825-1.856
					c0-1.025,0.369-1.856,0.825-1.856C300.223,117.279,300.592,118.109,300.592,119.134z"/>
				<path style="fill:none;stroke:#263238;stroke-linecap:round;stroke-linejoin:round;stroke-miterlimit:10;" d="M290.077,116.041
					c0,0,1.237-1.856,4.33-1.031"/>
				<path style="fill:none;stroke:#263238;stroke-linecap:round;stroke-linejoin:round;stroke-miterlimit:10;" d="M297.912,115.011
					c0,0,2.062-2.268,3.918,0"/>
				<path style="fill:none;stroke:#263238;stroke-linecap:round;stroke-linejoin:round;stroke-miterlimit:10;" d="M297.706,119.134
					c0,0,0.206,4.124,1.443,4.124c1.237,0,0.825,1.856-0.825,2.474"/>
				<path style="fill:none;stroke:#263238;stroke-linecap:round;stroke-linejoin:round;stroke-miterlimit:10;" d="M296.675,129.856
					c0,0-3.711,1.649-5.155-2.062"/>
			</g>
		</g>
		<g>
			<g>
				<path style="fill:#FFFFFF;stroke:#263238;stroke-linecap:round;stroke-linejoin:round;stroke-miterlimit:10;" d="
					M297.537,221.143c0,0-21.008-18.428-42.752-24.693c-21.745-6.265-46.807-3.317-68.551-9.214
					c-21.745-5.897-34.276-14.005-34.276-14.005l-1.106,19.533L296.8,232.2l99.878-27.642l9.951-20.27
					c0,0-12.162,6.265-33.907,11.425c-21.745,5.16-46.069,5.16-59.706,10.319C299.379,211.192,297.537,221.143,297.537,221.143z"/>
				<path style="fill:#FFFFFF;stroke:#263238;stroke-linecap:round;stroke-linejoin:round;stroke-miterlimit:10;" d="
					M148.641,177.654c0,0,24.325,14.742,79.239,19.902c36.147,3.396,69.657,23.588,69.657,23.588s20.27-14.374,49.018-15.479
					c28.747-1.106,61.549-12.531,61.549-12.531l-6.265,12.899l-107.25,21.008l-148.159-38.698L148.641,177.654z"/>
				<path style="fill:#FFFFFF;stroke:#263238;stroke-linecap:round;stroke-linejoin:round;stroke-miterlimit:10;" d="
					M144.586,182.076c0,0,28.842,14.205,65.603,16.954c39.435,2.948,86.242,22.113,86.242,22.113s24.693-13.268,51.966-13.268
					c27.273,0,52.335-5.897,60.074-8.108c0,0-2.211,5.897,1.843,12.162l-114.252,24.325l-152.213-44.227L144.586,182.076z"/>
				<g>
					<defs>
						<path id="XMLID_1_" d="M145.327,190.832l145.944,36.576v5.16l12.531,0.369v-5.897l109.829-17.322c0,0,4.791-1.106,0.737,4.423
							c-4.054,5.528-74.817,67.077-74.817,67.077l-78.502,8.108l-119.043-26.167l0.71-70.311
							C142.73,191.49,144.01,190.502,145.327,190.832z"/>
					</defs>
					<use xlink:href="#XMLID_1_"  style="overflow:visible;fill:#C6FF00;"/>
					<clipPath id="XMLID_00000142159421465279526920000018225758907953207208_">
						<use xlink:href="#XMLID_1_"  style="overflow:visible;"/>
					</clipPath>
					<polygon style="opacity:0.3;clip-path:url(#XMLID_00000142159421465279526920000018225758907953207208_);" points="
						291.271,232.568 291.271,227.409 142.744,190.184 142.007,263.159 261.05,289.326 263.175,289.106 294.601,232.666 					"/>
					
						<use xlink:href="#XMLID_1_"  style="overflow:visible;fill:none;stroke:#263238;stroke-linecap:round;stroke-linejoin:round;stroke-miterlimit:10;"/>
				</g>
				<polygon style="fill:#C6FF00;stroke:#263238;stroke-linecap:round;stroke-linejoin:round;stroke-miterlimit:10;" points="
					291.271,232.568 258.47,289.326 264.735,289.694 303.802,232.937 				"/>
			</g>
			<g>
				<path style="fill:#263238;" d="M400.744,212.015c0,0,9.788,1.835,7.749,8.361l5.875-6.235c0,0,2.689-3.349,1.466-3.961
					C414.611,209.568,400.744,212.015,400.744,212.015z"/>
				<path style="fill:#263238;" d="M158.857,194.538c0,0-13.844,3.836-16.013,14.178l-0.127-15.868c0,0,0.423-2.385,2.611-2.016
					C147.514,191.202,158.857,194.538,158.857,194.538z"/>
				<polygon style="fill:#263238;" points="142.143,258.304 149.097,264.927 142.007,263.159 				"/>
				<polygon style="fill:#263238;" points="334.539,281.65 343.977,277.014 339.01,281.319 				"/>
			</g>
		</g>
		<path style="fill:#FFFFFF;stroke:#263238;stroke-linecap:round;stroke-linejoin:round;stroke-miterlimit:10;" d="M331.227,165.68
			l26.561,31.839l-6.688,1.056l-28.474-24.038C322.627,174.537,330.01,169.745,331.227,165.68z"/>
		<g>
			<g>
				<path style="fill:#FFFFFF;stroke:#263238;stroke-linecap:round;stroke-linejoin:round;stroke-miterlimit:10;" d="
					M213.455,186.864c0,0-1.339-1.61-1.673-0.179c-0.335,1.432-3.347,6.442-1.004,6.8c2.343,0.358,3.682-5.368,3.682-5.368
					L213.455,186.864z"/>
				<path style="fill:#FFFFFF;stroke:#263238;stroke-linecap:round;stroke-linejoin:round;stroke-miterlimit:10;" d="
					M216.632,186.666c0,0-1.339-1.61-1.673-0.179c-0.335,1.432-3.347,6.442-1.004,6.8c2.343,0.358,3.682-5.368,3.682-5.368
					L216.632,186.666z"/>
				<path style="fill:#FFFFFF;stroke:#263238;stroke-linecap:round;stroke-linejoin:round;stroke-miterlimit:10;" d="
					M219.82,186.552c0,0-1.588-1.787-1.986-0.199c-0.397,1.588-3.971,7.148-1.191,7.545c2.78,0.397,4.368-5.956,4.368-5.956
					L219.82,186.552z"/>
				<polygon style="fill:#FFFFFF;stroke:#263238;stroke-linecap:round;stroke-linejoin:round;stroke-miterlimit:10;" points="
					222.6,187.148 227.96,192.31 221.607,192.31 				"/>
				<path style="fill:#FFFFFF;stroke:#263238;stroke-linecap:round;stroke-linejoin:round;stroke-miterlimit:10;" d="M222.6,187.148
					c0,0-1.588-1.787-1.986-0.199c-0.397,1.588-3.971,7.148-1.191,7.545c2.78,0.397,4.368-5.957,4.368-5.957L222.6,187.148z"/>
			</g>
			<g>
				<path style="fill:#FFFFFF;stroke:#263238;stroke-linecap:round;stroke-linejoin:round;stroke-miterlimit:10;" d="
					M365.032,191.781c0,0,1.069-1.801,1.625-0.439c0.555,1.361,4.317,5.836,2.059,6.557s-4.479-4.723-4.479-4.723L365.032,191.781z"
					/>
				<path style="fill:#FFFFFF;stroke:#263238;stroke-linecap:round;stroke-linejoin:round;stroke-miterlimit:10;" d="
					M361.863,192.084c0,0,1.069-1.801,1.625-0.439c0.555,1.361,4.317,5.836,2.059,6.558c-2.258,0.721-4.479-4.723-4.479-4.723
					L361.863,192.084z"/>
				<path style="fill:#FFFFFF;stroke:#263238;stroke-linecap:round;stroke-linejoin:round;stroke-miterlimit:10;" d="
					M358.697,192.472c0,0,1.288-2.014,1.93-0.508c0.642,1.506,5.044,6.436,2.361,7.264c-2.683,0.829-5.249-5.197-5.249-5.197
					L358.697,192.472z"/>
				<polygon style="fill:#FFFFFF;stroke:#263238;stroke-linecap:round;stroke-linejoin:round;stroke-miterlimit:10;" points="
					356.045,193.497 351.562,199.437 357.836,198.439 				"/>
				<path style="fill:#FFFFFF;stroke:#263238;stroke-linecap:round;stroke-linejoin:round;stroke-miterlimit:10;" d="
					M356.045,193.497c0,0,1.288-2.014,1.93-0.508c0.642,1.506,5.044,6.436,2.361,7.264c-2.683,0.829-5.249-5.197-5.249-5.197
					L356.045,193.497z"/>
			</g>
		</g>
	</g>
</g>
<g id="Sparkles">
	<g>
		<path style="fill:#FFFFFF;" d="M175.479,277.919c-11.726-0.663-12.264-1.201-12.927-12.927
			c-0.663,11.726-1.201,12.264-12.927,12.927c11.726,0.663,12.264,1.201,12.927,12.927
			C163.215,279.12,163.753,278.582,175.479,277.919z"/>
		<path style="fill:#FFFFFF;" d="M134.6,232.58c-8.355-0.472-8.738-0.856-9.211-9.211c-0.473,8.355-0.856,8.738-9.211,9.211
			c8.355,0.473,8.738,0.856,9.211,9.211C125.862,233.436,126.245,233.053,134.6,232.58z"/>
		<path style="fill:#FFFFFF;" d="M367.982,250.418c-8.355-0.473-8.738-0.856-9.211-9.211c-0.473,8.355-0.856,8.738-9.211,9.211
			c8.355,0.472,8.738,0.856,9.211,9.211C359.244,251.274,359.627,250.891,367.982,250.418z"/>
		<path style="fill:#FFFFFF;" d="M277.305,306.162c-8.355-0.473-8.738-0.856-9.211-9.211c-0.473,8.355-0.856,8.738-9.211,9.211
			c8.355,0.473,8.738,0.856,9.211,9.211C268.567,307.018,268.95,306.635,277.305,306.162z"/>
		<path style="fill:#FFFFFF;" d="M299.911,277.687c-8.355-0.473-8.738-0.856-9.211-9.211c-0.473,8.355-0.856,8.738-9.211,9.211
			c8.355,0.473,8.738,0.856,9.211,9.211C291.173,278.542,291.556,278.159,299.911,277.687z"/>
		<path style="fill:#FFFFFF;" d="M292.17,337.233c-5.526-0.313-5.779-0.566-6.092-6.092c-0.313,5.526-0.566,5.779-6.092,6.092
			c5.526,0.313,5.779,0.566,6.092,6.092C286.391,337.799,286.644,337.546,292.17,337.233z"/>
		<path style="fill:#FFFFFF;" d="M323.532,300.07c-5.526-0.313-5.779-0.566-6.092-6.092c-0.313,5.526-0.566,5.779-6.092,6.092
			c5.526,0.313,5.779,0.566,6.092,6.092C317.753,300.636,318.006,300.383,323.532,300.07z"/>
		<path style="fill:#FFFFFF;" d="M214.274,267.965c-5.526-0.313-5.779-0.566-6.092-6.092c-0.313,5.526-0.566,5.779-6.092,6.092
			c5.526,0.313,5.779,0.566,6.092,6.092C208.495,268.53,208.748,268.277,214.274,267.965z"/>
		<path style="fill:#FFFFFF;" d="M115.421,275.397c-5.526-0.313-5.779-0.566-6.092-6.092c-0.313,5.526-0.566,5.779-6.092,6.092
			c5.526,0.313,5.779,0.566,6.092,6.092C109.642,275.963,109.895,275.71,115.421,275.397z"/>
	</g>
</g>
</svg>
